<svg width="323" height="315" viewBox="0 0 323 315" fill="none" xmlns="http://www.w3.org/2000/svg">
<g clip-path="url(#clip0_249_110)">
<mask id="mask0_249_110" style="mask-type:alpha" maskUnits="userSpaceOnUse" x="-4" y="-11" width="339" height="339">
<rect x="39.5401" y="-11" width="297.814" height="297.814" transform="rotate(8.40673 39.5401 -11)" fill="#D9D9D9"/>
</mask>
<g mask="url(#mask0_249_110)">
<path d="M146.935 280.833C130.159 278.353 114.779 272.788 100.796 264.136C86.8132 255.484 75.0705 244.759 65.5681 231.961C56.0657 219.162 49.1957 204.819 44.9583 188.932C40.7209 173.044 39.8418 156.712 42.3212 139.935C44.8308 122.954 50.5139 107.487 59.3704 93.5345C68.2269 79.5819 79.149 67.9207 92.1366 58.5507C105.124 49.1808 119.664 42.3923 135.757 38.1851C151.849 33.9779 168.488 33.1442 185.674 35.6841C202.041 38.103 217.072 43.1989 230.767 50.972C244.461 58.7451 256.048 68.4018 265.528 79.9422C275.007 91.4826 281.963 104.532 286.397 119.09C290.831 133.647 291.884 148.803 289.556 164.557C286.079 188.085 276.25 205.082 260.069 215.548C243.888 226.014 225.568 229.735 205.108 226.711L182.399 223.355C180.557 223.083 179.203 223.406 178.336 224.323C177.468 225.24 176.944 226.312 176.763 227.54C176.4 229.995 177.413 233.751 179.801 238.808C182.19 243.865 182.946 249.36 182.069 255.293C180.557 265.523 176.625 272.677 170.273 276.755C163.921 280.834 156.142 282.193 146.935 280.833ZM95.7471 160.375C101.067 161.161 105.722 160.072 109.714 157.108C113.706 154.144 116.096 150.002 116.882 144.682C117.668 139.363 116.579 134.707 113.615 130.715C110.651 126.723 106.509 124.334 101.19 123.548C95.8702 122.762 91.2144 123.851 87.2223 126.815C83.2303 129.779 80.8411 133.921 80.055 139.24C79.2689 144.559 80.3578 149.215 83.3219 153.207C86.2859 157.199 90.4277 159.588 95.7471 160.375ZM139.83 116.715C145.15 117.501 149.806 116.412 153.798 113.448C157.79 110.484 160.179 106.342 160.965 101.023C161.751 95.7033 160.662 91.0475 157.698 87.0554C154.734 83.0633 150.592 80.6742 145.273 79.8881C139.954 79.1019 135.298 80.1909 131.306 83.155C127.314 86.119 124.925 90.2608 124.138 95.5802C123.352 100.9 124.441 105.555 127.405 109.547C130.369 113.54 134.511 115.929 139.83 116.715ZM201.208 125.786C206.528 126.572 211.183 125.483 215.176 122.519C219.168 119.555 221.557 115.413 222.343 110.094C223.129 104.774 222.04 100.118 219.076 96.1263C216.112 92.1342 211.97 89.7451 206.651 88.9589C201.331 88.1728 196.676 89.2618 192.684 92.2258C188.691 95.1899 186.302 99.3316 185.516 104.651C184.73 109.97 185.819 114.626 188.783 118.618C191.747 122.61 195.889 124.999 201.208 125.786ZM230.778 180.33C236.098 181.117 240.754 180.028 244.746 177.064C248.738 174.099 251.127 169.958 251.913 164.638C252.699 159.319 251.61 154.663 248.646 150.671C245.682 146.679 241.54 144.29 236.221 143.504C230.901 142.718 226.246 143.807 222.254 146.771C218.262 149.735 215.872 153.876 215.086 159.196C214.3 164.515 215.389 169.171 218.353 173.163C221.317 177.155 225.459 179.544 230.778 180.33ZM150.564 256.281C152.405 256.554 153.964 256.261 155.24 255.405C156.517 254.548 157.276 253.301 157.518 251.665C157.941 248.8 156.905 245.198 154.411 240.857C151.917 236.516 151.244 230.458 152.393 222.684C153.663 214.091 157.642 207.676 164.331 203.438C171.021 199.2 178.662 197.716 187.254 198.986L208.737 202.16C222.24 204.156 234.381 201.926 245.161 195.47C255.941 189.014 262.556 177.501 265.005 160.929C268.663 136.173 262.247 114.162 245.757 94.8951C229.266 75.6285 208.029 64.0752 182.045 60.2352C154.221 56.1231 129.082 62.1293 106.629 78.2537C84.1763 94.3782 70.924 116.148 66.8723 143.564C62.8509 170.774 68.9914 195.358 85.2937 217.315C101.596 239.271 123.353 252.26 150.564 256.281Z" fill="#DDDDDD"/>
</g>
</g>
<defs>
<clipPath id="clip0_249_110">
<rect width="323" height="315" fill="white"/>
</clipPath>
</defs>
</svg>
