<svg width="60" height="60" viewBox="0 0 60 60" fill="none" xmlns="http://www.w3.org/2000/svg">
<mask id="mask0_72_1189" style="mask-type:alpha" maskUnits="userSpaceOnUse" x="0" y="0" width="60" height="60">
<rect width="59.8312" height="59.8312" fill="#D9D9D9"/>
</mask>
<g mask="url(#mask0_72_1189)">
<path d="M29.9156 43.6265C33.0318 43.6265 35.6806 42.5358 37.8619 40.3545C40.0433 38.1732 41.134 35.5244 41.134 32.4082C41.134 29.292 40.0433 26.6432 37.8619 24.4618C35.6806 22.2805 33.0318 21.1898 29.9156 21.1898C26.7994 21.1898 24.1506 22.2805 21.9693 24.4618C19.7879 26.6432 18.6973 29.292 18.6973 32.4082C18.6973 35.5244 19.7879 38.1732 21.9693 40.3545C24.1506 42.5358 26.7994 43.6265 29.9156 43.6265ZM29.9156 38.6406C28.1705 38.6406 26.6955 38.0381 25.4906 36.8332C24.2857 35.6283 23.6832 34.1532 23.6832 32.4082C23.6832 30.6631 24.2857 29.1881 25.4906 27.9832C26.6955 26.7782 28.1705 26.1758 29.9156 26.1758C31.6607 26.1758 33.1357 26.7782 34.3406 27.9832C35.5456 29.1881 36.148 30.6631 36.148 32.4082C36.148 34.1532 35.5456 35.6283 34.3406 36.8332C33.1357 38.0381 31.6607 38.6406 29.9156 38.6406ZM9.97189 52.3519C8.60076 52.3519 7.42699 51.8637 6.45058 50.8873C5.47417 49.9109 4.98596 48.7371 4.98596 47.366V17.4504C4.98596 16.0792 5.47417 14.9055 6.45058 13.9291C7.42699 12.9527 8.60076 12.4644 9.97189 12.4644H17.8247L22.4367 7.47852H37.3945L42.0065 12.4644H49.8593C51.2305 12.4644 52.4042 12.9527 53.3807 13.9291C54.3571 14.9055 54.8453 16.0792 54.8453 17.4504V47.366C54.8453 48.7371 54.3571 49.9109 53.3807 50.8873C52.4042 51.8637 51.2305 52.3519 49.8593 52.3519H9.97189ZM9.97189 47.366H49.8593V17.4504H39.7628L35.2132 12.4644H24.6181L20.0684 17.4504H9.97189V47.366Z" fill="#F5F5F5"/>
<mask id="mask1_72_1189" style="mask-type:alpha" maskUnits="userSpaceOnUse" x="0" y="0" width="60" height="60">
<rect width="59.8312" height="59.8312" fill="#D9D9D9"/>
</mask>
<g mask="url(#mask1_72_1189)">
<path d="M29.9156 43.6265C33.0318 43.6265 35.6806 42.5358 37.8619 40.3545C40.0433 38.1732 41.134 35.5244 41.134 32.4082C41.134 29.292 40.0433 26.6432 37.8619 24.4618C35.6806 22.2805 33.0318 21.1898 29.9156 21.1898C26.7994 21.1898 24.1506 22.2805 21.9693 24.4618C19.7879 26.6432 18.6973 29.292 18.6973 32.4082C18.6973 35.5244 19.7879 38.1732 21.9693 40.3545C24.1506 42.5358 26.7994 43.6265 29.9156 43.6265ZM29.9156 38.6406C28.1705 38.6406 26.6955 38.0381 25.4906 36.8332C24.2857 35.6283 23.6832 34.1532 23.6832 32.4082C23.6832 30.6631 24.2857 29.1881 25.4906 27.9832C26.6955 26.7782 28.1705 26.1758 29.9156 26.1758C31.6607 26.1758 33.1357 26.7782 34.3406 27.9832C35.5456 29.1881 36.148 30.6631 36.148 32.4082C36.148 34.1532 35.5456 35.6283 34.3406 36.8332C33.1357 38.0381 31.6607 38.6406 29.9156 38.6406ZM9.97189 52.3519C8.60076 52.3519 7.42699 51.8637 6.45058 50.8873C5.47417 49.9109 4.98596 48.7371 4.98596 47.366V17.4504C4.98596 16.0792 5.47417 14.9055 6.45058 13.9291C7.42699 12.9527 8.60076 12.4644 9.97189 12.4644H17.8247L22.4367 7.47852H37.3945L42.0065 12.4644H49.8593C51.2305 12.4644 52.4042 12.9527 53.3807 13.9291C54.3571 14.9055 54.8453 16.0792 54.8453 17.4504V47.366C54.8453 48.7371 54.3571 49.9109 53.3807 50.8873C52.4042 51.8637 51.2305 52.3519 49.8593 52.3519H9.97189ZM9.97189 47.366H49.8593V17.4504H39.7628L35.2132 12.4644H24.6181L20.0684 17.4504H9.97189V47.366Z" fill="#F5F5F5"/>
</g>
</g>
</svg>
