<svg width="160" height="160" viewBox="0 0 160 160" fill="none" xmlns="http://www.w3.org/2000/svg">
<g clip-path="url(#clip0_69_919)">
<mask id="mask0_69_919" style="mask-type:alpha" maskUnits="userSpaceOnUse" x="-28" y="-5" width="170" height="170">
<rect x="7.755" y="-5" width="138.147" height="138.147" transform="rotate(15 7.755 -5)" fill="#D9D9D9"/>
</mask>
<g mask="url(#mask0_69_919)">
<path d="M12.4097 133.308C9.35168 132.489 7.02561 130.698 5.43146 127.937C3.8373 125.176 3.44992 122.266 4.2693 119.208L31.0855 19.1289C31.9049 16.0709 33.6952 13.7448 36.4564 12.1507C39.2175 10.5565 42.1271 10.1691 45.1851 10.9885L100.785 25.8864C103.843 26.7058 106.169 28.4961 107.763 31.2573C109.357 34.0184 109.745 36.928 108.925 39.986L82.109 140.066C81.2896 143.124 79.4993 145.45 76.7381 147.044C73.977 148.638 71.0674 149.025 68.0094 148.206L12.4097 133.308ZM16.879 116.628L15.3893 122.188L70.989 137.086L72.4788 131.526L16.879 116.628ZM19.8586 105.508L75.4584 120.406L93.3359 53.6863L37.7361 38.7884L19.8586 105.508ZM40.7157 27.6685L96.3155 42.5664L97.8053 37.0064L42.2055 22.1085L40.7157 27.6685Z" fill="#2E2E2E"/>
</g>
<mask id="mask1_69_919" style="mask-type:alpha" maskUnits="userSpaceOnUse" x="32" y="59" width="45" height="45">
<rect x="42.2309" y="59.2739" width="35.924" height="35.924" transform="rotate(15 42.2309 59.2739)" fill="#D9D9D9"/>
</mask>
<g mask="url(#mask1_69_919)">
<path d="M51.4453 94.2853C48.6259 93.5299 46.4974 91.9071 45.0597 89.4169C43.622 86.9268 43.2809 84.272 44.0363 81.4526C44.6433 79.1875 45.856 77.3365 47.6744 75.8996C49.4928 74.4627 51.5703 73.7216 53.907 73.6761C53.4573 73.4265 53.0342 73.1259 52.6377 72.7743C52.2412 72.4227 51.9107 72.0177 51.646 71.5594C51.0639 70.5512 50.8053 69.4681 50.8701 68.3104C50.935 67.1526 51.1794 66.0236 51.6034 64.9233C52.7682 65.1063 53.8682 65.4591 54.9033 65.9818C55.9384 66.5046 56.747 67.27 57.3291 68.2783C57.7348 68.9811 57.9706 69.7158 58.0363 70.4824C58.1021 71.249 58.0678 72.0275 57.9335 72.818C58.4469 72.1549 59.0153 71.5518 59.6387 71.0086C60.2621 70.4653 60.9251 69.9909 61.6279 69.5851C61.9639 69.3911 62.3368 69.349 62.7465 69.4587C63.1561 69.5685 63.458 69.7914 63.652 70.1275C63.8461 70.4636 63.8882 70.8365 63.7784 71.2461C63.6687 71.6558 63.4457 71.9576 63.1096 72.1517C62.4375 72.5398 61.811 72.9982 61.2302 73.527C60.6495 74.0558 60.1658 74.6559 59.7794 75.3271C61.7191 76.5701 63.1023 78.2514 63.929 80.3712C64.7557 82.491 64.872 84.6594 64.278 86.8764C63.5225 89.6957 61.8997 91.8243 59.4096 93.262C56.9194 94.6997 54.2647 95.0408 51.4453 94.2853Z" fill="#DE3232"/>
</g>
<g opacity="0.2">
<mask id="mask2_69_919" style="mask-type:alpha" maskUnits="userSpaceOnUse" x="16" y="43" width="78" height="78">
<rect x="33.0258" y="43.3303" width="62.8671" height="62.8671" transform="rotate(15 33.0258 43.3303)" fill="#D9D9D9"/>
</mask>
<g mask="url(#mask2_69_919)">
<path d="M31.4396 99.8544C30.048 99.4816 28.9894 98.6669 28.264 97.4103C27.5385 96.1538 27.3622 94.8297 27.7351 93.4381L30.447 83.3173L35.5074 84.6732L32.7955 94.794L42.9163 97.5059L41.5604 102.566L31.4396 99.8544ZM56.7417 106.634L58.0976 101.574L68.2184 104.286L70.9303 94.1647L75.9907 95.5207L73.2788 105.641C72.9059 107.033 72.0912 108.092 70.8347 108.817C69.5782 109.543 68.2541 109.719 66.8625 109.346L56.7417 106.634ZM34.5148 68.136L37.2266 58.0152C37.5995 56.6236 38.4142 55.5651 39.6708 54.8396C40.9273 54.1141 42.2514 53.9379 43.643 54.3107L53.7638 57.0226L52.4079 62.083L42.2871 59.3711L39.5752 69.492L34.5148 68.136ZM74.9981 78.9835L77.7099 68.8627L67.5891 66.1508L68.9451 61.0904L79.0659 63.8023C80.4575 64.1752 81.516 64.9899 82.2415 66.2464C82.9669 67.5029 83.1432 68.827 82.7704 70.2186L80.0585 80.3394L74.9981 78.9835ZM51.8629 94.4794C48.3628 93.5415 45.7098 91.5086 43.9038 88.3807C42.0979 85.2527 41.6639 81.9386 42.6017 78.4385C43.5396 74.9384 45.5725 72.2854 48.7004 70.4794C51.8284 68.6735 55.1424 68.2395 58.6426 69.1773C62.1427 70.1152 64.7957 72.1481 66.6016 75.2761C68.4076 78.404 68.8416 81.7181 67.9038 85.2182C66.9659 88.7183 64.933 91.3713 61.805 93.1773C58.6771 94.9832 55.363 95.4172 51.8629 94.4794ZM53.2188 89.419C55.3273 89.9839 57.3173 89.7262 59.1887 88.6457C61.0602 87.5653 62.2784 85.9708 62.8434 83.8623C63.4083 81.7538 63.1506 79.7638 62.0701 77.8923C60.9896 76.0209 59.3951 74.8027 57.2866 74.2377C55.1781 73.6728 53.1882 73.9305 51.3167 75.011C49.4453 76.0915 48.2271 77.686 47.6621 79.7945C47.0971 81.903 47.3549 83.8929 48.4354 85.7644C49.5158 87.6358 51.1103 88.854 53.2188 89.419Z" fill="#1C1B1F"/>
</g>
</g>
<mask id="mask3_69_919" style="mask-type:alpha" maskUnits="userSpaceOnUse" x="96" y="57" width="77" height="77">
<rect x="96.9556" y="57.3983" width="75.8893" height="75.8893" fill="#D9D9D9"/>
</mask>
<g mask="url(#mask3_69_919)">
<path d="M134.9 123.801C128.734 123.801 123.504 121.654 119.208 117.359C114.913 113.064 112.766 107.833 112.766 101.667C112.766 96.7131 114.228 92.273 117.153 88.3468C120.078 84.4206 123.912 81.7724 128.655 80.4022C127.601 80.1387 126.573 79.7566 125.572 79.2559C124.571 78.7553 123.675 78.1097 122.884 77.3192C121.145 75.58 120.025 73.5115 119.525 71.1136C119.024 68.7158 118.905 66.2783 119.169 63.8014C121.646 63.5379 124.083 63.6565 126.481 64.1571C128.879 64.6578 130.948 65.7777 132.687 67.5168C133.899 68.7289 134.782 70.0991 135.335 71.6275C135.888 73.1558 136.244 74.7632 136.402 76.4496C137.087 74.8159 137.917 73.2744 138.892 71.8251C139.867 70.3758 140.961 69.0451 142.173 67.833C142.753 67.2533 143.49 66.9634 144.386 66.9634C145.282 66.9634 146.02 67.2533 146.6 67.833C147.179 68.4127 147.469 69.1505 147.469 70.0464C147.469 70.9424 147.179 71.6802 146.6 72.2599C145.44 73.4193 144.413 74.6973 143.517 76.0939C142.621 77.4904 141.962 78.9792 141.54 80.5603C146.178 82.0359 149.92 84.7105 152.766 88.584C155.612 92.4575 157.034 96.8185 157.034 101.667C157.034 107.833 154.887 113.064 150.592 117.359C146.297 121.654 141.066 123.801 134.9 123.801Z" fill="#DE3232"/>
</g>
</g>
<defs>
<clipPath id="clip0_69_919">
<rect width="160" height="160" fill="white"/>
</clipPath>
</defs>
</svg>
