<svg width="160" height="160" viewBox="0 0 160 160" fill="none" xmlns="http://www.w3.org/2000/svg">
<rect x="41" y="20.941" width="73" height="131" rx="3" fill="#F1E3DC" stroke="black" stroke-width="2"/>
<mask id="mask0_72_1123" style="mask-type:alpha" maskUnits="userSpaceOnUse" x="32" y="40" width="92" height="93">
<rect x="32" y="40.815" width="91.4964" height="91.4964" fill="#D9D9D9"/>
</mask>
<g mask="url(#mask0_72_1123)">
<path d="M77.7482 120.874C70.3141 120.874 64.0079 118.285 58.8294 113.107C53.651 107.928 51.0618 101.622 51.0618 94.1879C51.0618 88.2152 52.825 82.862 56.3514 78.1283C59.8778 73.3947 64.5003 70.2018 70.2188 68.5498C68.948 68.2321 67.709 67.7715 66.5018 67.1678C65.2945 66.5642 64.2144 65.7859 63.2613 64.8328C61.1645 62.736 59.8143 60.2421 59.2107 57.351C58.607 54.46 58.4641 51.5213 58.7818 48.535C61.7681 48.2173 64.7068 48.3603 67.5978 48.9639C70.4889 49.5675 72.9828 50.9177 75.0796 53.0145C76.541 54.4759 77.6052 56.1279 78.2724 57.9706C78.9396 59.8132 79.3685 61.7511 79.5591 63.7844C80.3851 61.8147 81.3858 59.9562 82.5613 58.2088C83.7368 56.4615 85.0552 54.8571 86.5166 53.3957C87.2155 52.6968 88.1051 52.3473 89.1853 52.3473C90.2654 52.3473 91.155 52.6968 91.8539 53.3957C92.5528 54.0947 92.9023 54.9842 92.9023 56.0644C92.9023 57.1445 92.5528 58.0341 91.8539 58.733C90.456 60.1309 89.217 61.6717 88.1369 63.3555C87.0567 65.0393 86.2625 66.8343 85.7541 68.7404C91.3456 70.5195 95.8569 73.7441 99.288 78.4143C102.719 83.0844 104.435 88.3423 104.435 94.1879C104.435 101.622 101.845 107.928 96.667 113.107C91.4886 118.285 85.1823 120.874 77.7482 120.874Z" fill="#DE3232"/>
</g>
<mask id="mask1_72_1123" style="mask-type:alpha" maskUnits="userSpaceOnUse" x="87" y="-5" width="69" height="68">
<rect x="101.757" y="-5" width="55.2374" height="55.2374" transform="rotate(15 101.757 -5)" fill="#D9D9D9"/>
</mask>
<g mask="url(#mask1_72_1123)">
<path d="M107.473 50.1435L105.155 41.8976L97.6283 37.9746L100.61 29.9575L96.8317 22.2733L103.946 17.508L105.372 9.0739L113.852 9.43986L119.982 3.45764L126.677 8.70652L135.1 7.50831L137.417 15.7541L144.944 19.6771L141.962 27.6942L145.741 35.3784L138.626 40.1438L137.2 48.5779L128.72 48.2119L122.59 54.1941L115.895 48.9452L107.473 50.1435ZM110.881 44.9808L117.206 44.0543L122.331 48.0486L126.873 43.547L133.373 43.7401L134.486 37.3664L139.849 33.7999L137.017 27.9181L139.241 21.8423L133.485 18.8702L131.691 12.671L125.367 13.5974L120.242 9.60318L115.7 14.1047L109.229 13.8005L108.117 20.1742L102.723 23.8519L105.585 29.6225L103.331 35.8095L109.088 38.7815L110.881 44.9808ZM116.837 36.0925L132.764 26.8975L130.515 22.84L118.535 29.7566L115.006 23.8073L111.06 26.0857L116.837 36.0925Z" fill="#0AC74F"/>
</g>
</svg>
