<svg width="381" height="378" viewBox="0 0 381 378" fill="none" xmlns="http://www.w3.org/2000/svg">
<path d="M228.123 271.527L74.8544 229.65M147.441 129.25C121.552 168.209 90.4682 178.99 52.9692 186.006C51.7252 186.233 50.5619 186.782 49.5939 187.597C48.626 188.412 47.8868 189.466 47.4493 190.654C47.0118 191.843 46.8911 193.125 47.0991 194.374C47.307 195.624 47.8365 196.797 48.6352 197.779L153.684 325.479C155.818 327.749 158.63 329.263 161.698 329.792C164.765 330.321 167.921 329.836 170.69 328.411C201.042 307.581 247.898 255.642 247.898 229.88M281.996 51.9379C284.825 49.1042 288.183 46.8564 291.879 45.3229C295.575 43.7893 299.536 43 303.537 43C307.537 43 311.499 43.7893 315.195 45.3229C318.891 46.8564 322.249 49.1042 325.078 51.9379C327.906 54.7715 330.15 58.1356 331.681 61.8379C333.212 65.5403 334 69.5084 334 73.5158C334 77.5232 333.212 81.4914 331.681 85.1937C330.15 88.8961 327.906 92.2601 325.078 95.0938L267.415 152.87C266.07 154.218 265.314 156.046 265.314 157.952C265.314 159.857 266.07 161.685 267.415 163.033L280.963 176.604C287.448 183.101 291.091 191.913 291.091 201.1C291.091 210.288 287.448 219.099 280.963 225.596L267.415 239.167C266.07 240.515 264.245 241.272 262.342 241.272C260.44 241.272 258.615 240.515 257.269 239.167L138.171 119.877C136.826 118.53 136.07 116.702 136.07 114.796C136.07 112.89 136.826 111.062 138.171 109.714L151.718 96.1432C158.204 89.647 167 85.9976 176.172 85.9976C185.344 85.9976 194.14 89.647 200.626 96.1432L214.173 109.714C215.519 111.061 217.344 111.818 219.246 111.818C221.149 111.818 222.974 111.061 224.32 109.714L281.996 51.9379Z" stroke="#DDDDDD" stroke-width="36" stroke-linecap="round" stroke-linejoin="round"/>
<path d="M214.162 267.217L86.4165 231C104.086 261.224 141.886 323.302 151.736 329.821C161.586 336.34 197.458 290.801 214.162 267.217Z" fill="#DDDDDD"/>
</svg>
