<svg width="267" height="160" viewBox="0 0 267 160" fill="none" xmlns="http://www.w3.org/2000/svg">
<g clip-path="url(#clip0_71_989)">
<mask id="mask0_71_989" style="mask-type:alpha" maskUnits="userSpaceOnUse" x="0" y="17" width="134" height="134">
<rect y="17" width="133.476" height="133.476" fill="#D9D9D9"/>
</mask>
<g mask="url(#mask0_71_989)">
<path d="M0 128.23V117.107H11.123V33.6844H122.353V117.107H133.476V128.23H0ZM55.6148 117.107H77.8607V111.545H55.6148V117.107ZM22.2459 100.422H111.23V44.8074H22.2459V100.422Z" fill="#2E2E2E"/>
</g>
<mask id="mask1_71_989" style="mask-type:alpha" maskUnits="userSpaceOnUse" x="217" y="68" width="64" height="64">
<rect x="217" y="68" width="63.2925" height="63.2925" fill="#D9D9D9"/>
</mask>
<g mask="url(#mask1_71_989)">
<path d="M235.46 128.655C234.01 128.655 232.768 128.139 231.735 127.106C230.702 126.073 230.186 124.831 230.186 123.381V75.9116C230.186 74.4611 230.702 73.2194 231.735 72.1865C232.768 71.1536 234.01 70.6372 235.46 70.6372H261.832C263.283 70.6372 264.524 71.1536 265.557 72.1865C266.59 73.2194 267.107 74.4611 267.107 75.9116V123.381C267.107 124.831 266.59 126.073 265.557 127.106C264.524 128.139 263.283 128.655 261.832 128.655H235.46ZM235.46 120.744V123.381H261.832V120.744H235.46ZM235.46 115.469H261.832V83.8231H235.46V115.469ZM235.46 78.5487H261.832V75.9116H235.46V78.5487Z" fill="#2E2E2E"/>
</g>
<mask id="mask2_71_989" style="mask-type:alpha" maskUnits="userSpaceOnUse" x="175" y="68" width="64" height="64">
<rect x="175" y="68" width="63.2925" height="63.2925" fill="#D9D9D9"/>
</mask>
<g mask="url(#mask2_71_989)">
<path d="M193.46 128.655C192.01 128.655 190.768 128.139 189.735 127.106C188.702 126.073 188.186 124.831 188.186 123.381V75.9116C188.186 74.4611 188.702 73.2194 189.735 72.1865C190.768 71.1536 192.01 70.6372 193.46 70.6372H219.832C221.283 70.6372 222.524 71.1536 223.557 72.1865C224.59 73.2194 225.107 74.4611 225.107 75.9116V123.381C225.107 124.831 224.59 126.073 223.557 127.106C222.524 128.139 221.283 128.655 219.832 128.655H193.46ZM193.46 120.744V123.381H219.832V120.744H193.46ZM193.46 115.469H219.832V83.8231H193.46V115.469ZM193.46 78.5487H219.832V75.9116H193.46V78.5487Z" fill="#2E2E2E"/>
</g>
<mask id="mask3_71_989" style="mask-type:alpha" maskUnits="userSpaceOnUse" x="133" y="68" width="64" height="64">
<rect x="133" y="68" width="63.2925" height="63.2925" fill="#D9D9D9"/>
</mask>
<g mask="url(#mask3_71_989)">
<path d="M151.46 128.655C150.01 128.655 148.768 128.139 147.735 127.106C146.702 126.073 146.186 124.831 146.186 123.381V75.9116C146.186 74.4611 146.702 73.2194 147.735 72.1865C148.768 71.1536 150.01 70.6372 151.46 70.6372H177.832C179.283 70.6372 180.524 71.1536 181.557 72.1865C182.59 73.2194 183.107 74.4611 183.107 75.9116V123.381C183.107 124.831 182.59 126.073 181.557 127.106C180.524 128.139 179.283 128.655 177.832 128.655H151.46ZM151.46 120.744V123.381H177.832V120.744H151.46ZM151.46 115.469H177.832V83.8231H151.46V115.469ZM151.46 78.5487H177.832V75.9116H151.46V78.5487Z" fill="#2E2E2E"/>
</g>
</g>
<defs>
<clipPath id="clip0_71_989">
<rect width="267" height="160" fill="white"/>
</clipPath>
</defs>
</svg>
