<svg width="160" height="160" viewBox="0 0 160 160" fill="none" xmlns="http://www.w3.org/2000/svg">
<circle cx="61" cy="79.144" r="33" fill="#DE3232"/>
<mask id="mask0_69_893" style="mask-type:alpha" maskUnits="userSpaceOnUse" x="68" y="44" width="84" height="84">
<rect x="68.2177" y="74.5917" width="61.1834" height="61.1834" transform="rotate(-30 68.2177 74.5917)" fill="#D9D9D9"/>
</mask>
<g mask="url(#mask0_69_893)">
<path d="M119.386 109.81C118.356 110.405 117.263 110.742 116.106 110.821C114.95 110.9 113.825 110.715 112.732 110.267L91.873 101.925L92.2844 100.215C92.5741 99.0177 93.1917 98.0479 94.137 97.3059C95.0823 96.5639 96.1559 96.2139 97.3576 96.256L102.876 96.3816L92.4238 78.2779C92.0627 77.6524 91.9715 77.0059 92.1504 76.3384C92.3292 75.6709 92.7314 75.1566 93.3569 74.7955C93.9825 74.4343 94.6382 74.3379 95.324 74.5061C96.0099 74.6743 96.5334 75.0712 96.8946 75.6967L111.935 101.748L104.67 101.528L114.648 105.554C115.018 105.685 115.392 105.738 115.771 105.716C116.151 105.693 116.506 105.586 116.837 105.395L129.035 98.3521C130.249 97.651 131.039 96.6185 131.405 95.2546C131.77 93.8906 131.602 92.6015 130.901 91.3872L125.803 82.5562C125.441 81.9306 124.927 81.5284 124.26 81.3496C123.592 81.1708 122.946 81.2619 122.32 81.6231L110.233 88.6018L107.683 84.1863L119.771 77.2075C121.611 76.1453 123.546 75.8864 125.578 76.4307C127.609 76.975 129.156 78.1671 130.218 80.0069L135.317 88.8379C136.719 91.2665 137.054 93.8447 136.324 96.5726C135.593 99.3005 134.013 101.365 131.584 102.768L119.386 109.81ZM88.2696 88.0356C87.3239 87.5022 86.4514 86.8407 85.6521 86.0512C84.8528 85.2616 84.1663 84.37 83.5928 83.3765C81.8295 80.3225 81.4027 77.0977 82.3125 73.7024C83.2223 70.307 85.2042 67.7277 88.2583 65.9644C91.3124 64.2011 94.5371 63.7744 97.9325 64.6842C101.328 65.594 103.907 67.5759 105.67 70.63C106.244 71.6235 106.673 72.6637 106.957 73.7507C107.241 74.8377 107.378 75.9241 107.367 77.0098L102.284 77.0008C102.281 76.3157 102.199 75.6639 102.038 75.0454C101.877 74.4268 101.616 73.8048 101.255 73.1793C100.193 71.3395 98.6459 70.1474 96.6145 69.6031C94.583 69.0588 92.6474 69.3177 90.8076 70.38C88.9678 71.4422 87.7758 72.989 87.2314 75.0204C86.6871 77.0518 86.9461 78.9874 88.0083 80.8272C88.3694 81.4528 88.7776 81.9898 89.2329 82.4384C89.6881 82.8869 90.2116 83.2838 90.8034 83.629L88.2696 88.0356Z" fill="#2E2E2E"/>
</g>
</svg>
