<svg width="105" height="105" viewBox="0 0 105 105" fill="none" xmlns="http://www.w3.org/2000/svg">
<mask id="mask0_85_167" style="mask-type:alpha" maskUnits="userSpaceOnUse" x="0" y="0" width="105" height="105">
<rect width="105" height="105" fill="#D9D9D9"/>
</mask>
<g mask="url(#mask0_85_167)">
<path d="M37.625 98.437L29.3125 84.437L13.5625 80.937L15.0938 64.7495L4.375 52.4995L15.0938 40.2495L13.5625 24.062L29.3125 20.562L37.625 6.56201L52.5 12.9058L67.375 6.56201L75.6875 20.562L91.4375 24.062L89.9063 40.2495L100.625 52.4995L89.9063 64.7495L91.4375 80.937L75.6875 84.437L67.375 98.437L52.5 92.0933L37.625 98.437ZM41.3438 87.2808L52.5 82.4683L63.875 87.2808L70 76.7808L82.0312 73.937L80.9375 61.687L89.0312 52.4995L80.9375 43.0933L82.0312 30.8433L70 28.2183L63.6562 17.7183L52.5 22.5308L41.125 17.7183L35 28.2183L22.9688 30.8433L24.0625 43.0933L15.9688 52.4995L24.0625 61.687L22.9688 74.1558L35 76.7808L41.3438 87.2808ZM47.9062 68.0308L72.625 43.312L66.5 36.9683L47.9062 55.562L38.5 46.3745L32.375 52.4995L47.9062 68.0308Z" fill="#F5F5F5"/>
</g>
</svg>
